<?xml version="1.0" standalone="no"?>
<!DOCTYPE svg PUBLIC "-//W3C//DTD SVG 20010904//EN"
 "http://www.w3.org/TR/2001/REC-SVG-20010904/DTD/svg10.dtd">
<svg version="1.0" xmlns="http://www.w3.org/2000/svg"
 width="124.000000pt" height="124.000000pt" viewBox="0 0 124.000000 124.000000"
 preserveAspectRatio="xMidYMid meet">
<metadata>
Created by potrace 1.15, written by Peter Selinger 2001-2017
</metadata>
<g transform="translate(0.000000,124.000000) scale(0.100000,-0.100000)"
fill="#000000" stroke="none">
<path d="M740 1203 l0 -40 49 -6 c134 -16 256 -137 277 -274 6 -42 7 -43 47
-43 l40 0 -6 58 c-15 171 -176 330 -344 340 l-63 4 0 -39z"/>
<path d="M742 1060 c3 -42 4 -43 53 -56 61 -15 112 -68 121 -126 6 -37 7 -38
52 -38 l45 0 -7 41 c-18 111 -110 200 -222 216 l-45 6 3 -43z"/>
<path d="M182 944 c-60 -81 -84 -152 -90 -262 -3 -70 0 -110 13 -158 18 -66
73 -162 117 -202 l25 -22 -29 -148 c-15 -81 -28 -148 -28 -149 0 -2 88 -3 195
-3 107 0 195 3 195 8 -1 4 -7 36 -15 72 -22 99 -22 100 28 100 89 0 208 48
282 113 l40 36 -154 154 -154 155 48 46 c44 41 53 46 96 46 38 0 53 5 78 29
27 25 31 36 31 81 0 44 -4 56 -29 81 -25 24 -38 29 -79 29 -34 0 -57 -6 -75
-20 -30 -24 -50 -78 -42 -111 5 -19 -4 -34 -42 -71 l-48 -48 -150 150 c-82 83
-155 150 -161 150 -6 0 -29 -25 -52 -56z m580 -626 c-65 -43 -176 -64 -257
-49 -134 25 -240 106 -298 229 -29 60 -32 77 -32 157 0 81 3 97 33 160 l33 69
274 -274 274 -274 -27 -18z m-331 -121 c22 -6 27 -14 36 -62 l10 -55 -92 0
-92 0 15 79 15 79 41 -18 c23 -9 53 -20 67 -23z"/>
</g>
</svg>
